<svg xmlns="http://www.w3.org/2000/svg" width="58" height="58" viewBox="0 0 58 58"><defs><style>.cls-1{fill:#0a6dc4;}</style></defs><title>icon_dragon_off</title><g id="レイヤー_2のコピー" data-name="レイヤー 2のコピー"><path class="cls-1" d="M25.55,29.66c-9.39,0-12.88,3.45-12.88,3.45A17,17,0,0,0,27,46.38S18.93,37.94,25.55,29.66Z"/><path class="cls-1" d="M30,12.55c1.4-3.21.16-7.2.16-7.2-1.66,4.9-8.91,9.2-9.34,9.45h0c-4.91,2.84-8.88,7.93-9.1,14,0,0,1.74-1.74,9.69-2.16,8.11-.42,9.69-6.33,9.69-6.33.55,2.21,3.31,4.42,3.31,4.42a7.2,7.2,0,0,1,2.21,5.93,7.66,7.66,0,0,1-3.86,6.77,14,14,0,0,1-7.19,1.1,9.36,9.36,0,0,0,4.25,5.78,7.24,7.24,0,0,0,7.38.34A17,17,0,0,0,30,12.55ZM21.65,21.8C20.49,23.13,17.31,24,17.31,24s1.34-4.35,4.86-5.26A3.21,3.21,0,0,1,21.65,21.8Z"/></g></svg>