<svg xmlns="http://www.w3.org/2000/svg" width="58" height="58" viewBox="0 0 58 58"><defs><style>.cls-1{fill:#ec8fe6;}</style></defs><title>icon_fairy_off</title><g id="レイヤー_2のコピー" data-name="レイヤー 2のコピー"><path class="cls-1" d="M48.47,28.05l-8.28-4.93a.54.54,0,0,1-.25-.62l1.37-5.13a.56.56,0,0,0-.68-.68L35.5,18.06a.54.54,0,0,1-.62-.25L30,9.53a1.11,1.11,0,0,0-1.9,0l-4.93,8.28a.54.54,0,0,1-.62.25l-5.13-1.37a.56.56,0,0,0-.68.68l1.37,5.13a.54.54,0,0,1-.25.62L9.53,28.05a1.11,1.11,0,0,0,0,1.9l8.28,4.93a.54.54,0,0,1,.25.62l-1.37,5.13a.56.56,0,0,0,.68.68l5.13-1.37a.54.54,0,0,1,.62.25l4.93,8.28a1.11,1.11,0,0,0,1.9,0l4.93-8.28a.54.54,0,0,1,.62-.25l5.13,1.37a.56.56,0,0,0,.68-.68L39.94,35.5a.54.54,0,0,1,.25-.62L48.47,30A1.11,1.11,0,0,0,48.47,28.05ZM31.93,32.13l-2.45,4.24a.55.55,0,0,1-1,0l-2.45-4.24a.64.64,0,0,0-.2-.2l-4.24-2.45a.55.55,0,0,1,0-1l4.24-2.45a.64.64,0,0,0,.2-.2l2.45-4.24a.55.55,0,0,1,1,0l2.45,4.24a.64.64,0,0,0,.2.2l4.24,2.45a.55.55,0,0,1,0,1l-4.24,2.45A.64.64,0,0,0,31.93,32.13Z"/></g></svg>