<svg xmlns="http://www.w3.org/2000/svg" width="58" height="58" viewBox="0 0 58 58"><defs><style>.cls-1{fill:#5269ac;}</style></defs><title>icon_ghost_off</title><g id="レイヤー_2のコピー" data-name="レイヤー 2のコピー"><path class="cls-1" d="M43.66,43.63A2.63,2.63,0,0,1,41,41a2.61,2.61,0,0,1,.59-1.66,17.61,17.61,0,1,0-26.88.27h0l.27.31a.69.69,0,0,1,.11.13l.08.08a17.81,17.81,0,0,0,5.45,3.95,23.19,23.19,0,0,0,11.19,2.46s7.47,0,12.38-3C44.38,43.48,43.85,43.63,43.66,43.63Zm-22.5-14a3.95,3.95,0,0,1-1.55-7.58c0,.05,0,.1,0,.14a4,4,0,0,0,5.5,3.64A3.93,3.93,0,0,1,21.16,29.64Zm13.91,0a3.94,3.94,0,0,1-3.94-3.8,4,4,0,0,0,5.5-3.64s0-.09,0-.14a3.95,3.95,0,0,1-1.55,7.58Z"/></g></svg>