<svg xmlns="http://www.w3.org/2000/svg" width="58" height="58" viewBox="0 0 58 58"><defs><style>.cls-1{fill:#74cec0;}</style></defs><title>icon_ice_off</title><g id="レイヤー_2のコピー" data-name="レイヤー 2のコピー"><polygon class="cls-1" points="41.04 23.32 31.2 29 41.04 34.68 50.88 29 41.04 23.32"/><polygon class="cls-1" points="18.06 21.41 27.9 27.09 27.9 15.73 18.06 10.05 18.06 21.41"/><polygon class="cls-1" points="39.94 10.05 30.1 15.73 30.1 27.09 39.94 21.41 39.94 10.05"/><polygon class="cls-1" points="30.1 42.27 39.94 47.95 39.94 36.59 30.1 30.91 30.1 42.27"/><polygon class="cls-1" points="18.06 47.95 27.9 42.27 27.9 30.91 18.06 36.59 18.06 47.95"/><polygon class="cls-1" points="16.96 23.32 7.12 29 16.96 34.68 26.8 29 16.96 23.32"/></g></svg>